<svg xmlns="http://www.w3.org/2000/svg" width="520" height="360" viewBox="0 0 520 360">
  <defs>
    <radialGradient id="g4" cx="50%" cy="50%" r="55%">
      <stop offset="0%" stop-color="#0a2a22"/>
      <stop offset="100%" stop-color="#060d12"/>
    </radialGradient>
  </defs>
  <rect width="520" height="360" fill="url(#g4)"/>
  <!-- Neural network nodes -->
  <g fill="none" stroke="#1D9E75" stroke-width="0.6" opacity="0.25">
    <!-- Input layer -->
    <circle cx="100" cy="100" r="8"/><circle cx="100" cy="150" r="8"/><circle cx="100" cy="200" r="8"/><circle cx="100" cy="250" r="8"/>
    <!-- Hidden layer 1 -->
    <circle cx="220" cy="115" r="8"/><circle cx="220" cy="165" r="8"/><circle cx="220" cy="215" r="8"/>
    <!-- Hidden layer 2 -->
    <circle cx="340" cy="130" r="8"/><circle cx="340" cy="180" r="8"/><circle cx="340" cy="230" r="8"/>
    <!-- Output -->
    <circle cx="430" cy="175" r="10"/>
    <!-- Connections (selected) -->
    <line x1="108" y1="100" x2="212" y2="115" opacity="0.5"/>
    <line x1="108" y1="100" x2="212" y2="165"/>
    <line x1="108" y1="150" x2="212" y2="115"/>
    <line x1="108" y1="150" x2="212" y2="215"/>
    <line x1="108" y1="200" x2="212" y2="165" opacity="0.5"/>
    <line x1="108" y1="250" x2="212" y2="215"/>
    <line x1="228" y1="115" x2="332" y2="130"/>
    <line x1="228" y1="165" x2="332" y2="180"/>
    <line x1="228" y1="215" x2="332" y2="230"/>
    <line x1="228" y1="115" x2="332" y2="180" opacity="0.4"/>
    <line x1="348" y1="130" x2="420" y2="175"/>
    <line x1="348" y1="180" x2="420" y2="175"/>
    <line x1="348" y1="230" x2="420" y2="175" opacity="0.5"/>
  </g>
  <!-- Highlighted active nodes -->
  <circle cx="220" cy="165" r="8" fill="#0d5a3e" stroke="#5DCAA5" stroke-width="1.5" opacity="0.9"/>
  <circle cx="340" cy="180" r="8" fill="#0d5a3e" stroke="#5DCAA5" stroke-width="1.5" opacity="0.9"/>
  <circle cx="430" cy="175" r="10" fill="#0F6E56" stroke="#5DCAA5" stroke-width="2" opacity="0.9"/>
  <!-- Accuracy badge -->
  <rect x="340" y="55" width="148" height="34" rx="4" fill="#0d5a3e" opacity="0.7"/>
  <text x="355" y="77" font-family="monospace" font-size="13" fill="#5DCAA5" opacity="0.9">98% val accuracy</text>
  <!-- Label -->
  <text x="30" y="42" font-family="monospace" font-size="11" fill="#5DCAA5" opacity="0.7" letter-spacing="3">04 / SPECIES IMAGE CLASSIFIER</text>
</svg>
